<svg width="224" height="298" viewBox="0 0 224 298" fill="none" xmlns="http://www.w3.org/2000/svg">
<g clip-path="url(#clip0)">
<path d="M147.404 123.48C158.338 123.48 167.201 114.615 167.201 103.679C167.201 92.7431 158.338 83.8779 147.404 83.8779C136.47 83.8779 127.606 92.7431 127.606 103.679C127.606 114.615 136.47 123.48 147.404 123.48Z" fill="#6C63FF" fill-opacity="0.58"/>
<path d="M147.224 140.488L147.386 104.57" stroke="#3F3D56" stroke-width="2" stroke-miterlimit="10"/>
<path d="M147.387 109.649C150.191 109.649 152.465 107.375 152.465 104.57C152.465 101.765 150.191 99.4907 147.387 99.4907C144.582 99.4907 142.308 101.765 142.308 104.57C142.308 107.375 144.582 109.649 147.387 109.649Z" fill="#3F3D56"/>
<path d="M147.286 126.707C147.286 126.707 146.631 111.097 131.75 112.844Z" fill="#3F3D56"/>
<path d="M64.4685 84.7258C75.4024 84.7258 84.2661 75.8607 84.2661 64.9249C84.2661 53.9892 75.4024 45.124 64.4685 45.124C53.5346 45.124 44.6709 53.9892 44.6709 64.9249C44.6709 75.8607 53.5346 84.7258 64.4685 84.7258Z" fill="#6C63FF" fill-opacity="0.4"/>
<path d="M63.3477 138.025L64.4871 64.9028" stroke="#3F3D56" stroke-width="2" stroke-miterlimit="10"/>
<path d="M64.4872 69.9824C67.2919 69.9824 69.5657 67.7083 69.5657 64.9031C69.5657 62.0978 67.2919 59.8237 64.4872 59.8237C61.6824 59.8237 59.4087 62.0978 59.4087 64.9031C59.4087 67.7083 61.6824 69.9824 64.4872 69.9824Z" fill="#3F3D56"/>
<path d="M64.1646 85.5864C64.1646 85.5864 63.6824 69.9705 48.7832 71.5525Z" fill="#3F3D56"/>
<path d="M63.3693 136.629C63.3693 136.629 67.1012 106.672 48.2632 104.927" stroke="#3F3D56" stroke-width="2" stroke-miterlimit="10"/>
<path d="M48.2631 110.006C51.0678 110.006 53.3415 107.732 53.3415 104.926C53.3415 102.121 51.0678 99.8472 48.2631 99.8472C45.4583 99.8472 43.1846 102.121 43.1846 104.926C43.1846 107.732 45.4583 110.006 48.2631 110.006Z" fill="#3F3D56"/>
<path d="M107.043 40.7669C117.977 40.7669 126.841 31.9017 126.841 20.9659C126.841 10.0302 117.977 1.16504 107.043 1.16504C96.1093 1.16504 87.2456 10.0302 87.2456 20.9659C87.2456 31.9017 96.1093 40.7669 107.043 40.7669Z" fill="#6C63FF" fill-opacity="0.41"/>
<path d="M107.056 140.844V21.0386" stroke="#3F3D56" stroke-width="2" stroke-miterlimit="10"/>
<path d="M107.056 26.061C109.86 26.061 112.134 23.7869 112.134 20.9817C112.134 18.1764 109.86 15.9023 107.056 15.9023C104.251 15.9023 101.977 18.1764 101.977 20.9817C101.977 23.7869 104.251 26.061 107.056 26.061Z" fill="#3F3D56"/>
<path d="M91.4574 112.741C94.2622 112.741 96.5359 110.467 96.5359 107.662C96.5359 104.857 94.2622 102.583 91.4574 102.583C88.6526 102.583 86.3789 104.857 86.3789 107.662C86.3789 110.467 88.6526 112.741 91.4574 112.741Z" fill="#3F3D56"/>
<path d="M107.056 46.9274C107.056 46.9274 106.33 31.321 91.4575 33.135Z" fill="#3F3D56"/>
<path d="M107.056 91.1696C107.056 91.1696 106.33 75.5631 91.4575 77.3772Z" fill="#3F3D56"/>
<path d="M107.056 139.448C107.056 139.448 110.32 109.113 91.4575 107.662" stroke="#3F3D56" stroke-width="2" stroke-miterlimit="10"/>
<path d="M122.965 65.0952C125.77 65.0952 128.044 62.8211 128.044 60.0158C128.044 57.2106 125.77 54.9365 122.965 54.9365C120.16 54.9365 117.887 57.2106 117.887 60.0158C117.887 62.8211 120.16 65.0952 122.965 65.0952Z" fill="#3F3D56"/>
<path d="M107.367 90.1843C107.367 90.1843 104.103 61.4673 122.965 60.0161" stroke="#3F3D56" stroke-width="2" stroke-miterlimit="10"/>
<path d="M149.397 48.543C147.989 48.543 146.613 48.1254 145.442 47.3431C144.272 46.5608 143.359 45.4488 142.821 44.1479C142.282 42.847 142.141 41.4154 142.416 40.0344C142.69 38.6533 143.368 37.3847 144.364 36.389C145.359 35.3933 146.628 34.7152 148.009 34.4405C149.389 34.1658 150.821 34.3068 152.121 34.8457C153.422 35.3845 154.534 36.2971 155.316 37.4679C156.098 38.6387 156.516 40.0152 156.516 41.4233C156.514 43.3109 155.763 45.1206 154.428 46.4553C153.094 47.7901 151.285 48.5408 149.397 48.543V48.543ZM149.397 34.951C148.117 34.951 146.866 35.3306 145.802 36.0417C144.738 36.7529 143.908 37.7638 143.419 38.9465C142.929 40.1291 142.801 41.4305 143.05 42.686C143.3 43.9416 143.916 45.0948 144.821 46C145.726 46.9052 146.879 47.5216 148.135 47.7714C149.39 48.0211 150.691 47.8929 151.874 47.4031C153.056 46.9132 154.067 46.0836 154.778 45.0192C155.489 43.9548 155.869 42.7035 155.869 41.4233C155.867 39.7074 155.184 38.0622 153.971 36.8488C152.758 35.6355 151.113 34.9529 149.397 34.951Z" fill="#3F3D56"/>
<path d="M37.4432 14.2393C36.0353 14.2393 34.659 13.8217 33.4884 13.0394C32.3177 12.2571 31.4053 11.1451 30.8666 9.8442C30.3278 8.54326 30.1868 7.11174 30.4615 5.73066C30.7362 4.34959 31.4141 3.08099 32.4097 2.0853C33.4052 1.0896 34.6736 0.411517 36.0544 0.136805C37.4353 -0.137908 38.8665 0.00308574 40.1673 0.541954C41.468 1.08082 42.5798 1.99336 43.3619 3.16418C44.1441 4.335 44.5616 5.71151 44.5616 7.11964C44.5595 9.00723 43.8088 10.8169 42.4743 12.1516C41.1398 13.4864 39.3304 14.2371 37.4432 14.2393V14.2393ZM37.4432 0.647243C36.1633 0.647243 34.9121 1.02684 33.8479 1.73804C32.7837 2.44923 31.9542 3.46008 31.4644 4.64276C30.9746 5.82543 30.8465 7.12682 31.0962 8.38234C31.3459 9.63786 31.9622 10.7911 32.8673 11.6963C33.7723 12.6015 34.9254 13.2179 36.1807 13.4677C37.436 13.7174 38.7371 13.5892 39.9196 13.0993C41.1021 12.6095 42.1128 11.7799 42.8239 10.7155C43.5349 9.65113 43.9145 8.39975 43.9145 7.11964C43.9125 5.40365 43.2301 3.75851 42.0169 2.54513C40.8037 1.33175 39.1589 0.649205 37.4432 0.647243V0.647243Z" fill="#3F3D56"/>
<path d="M19.1185 218.239C17.7106 218.239 16.3343 217.822 15.1637 217.039C13.993 216.257 13.0806 215.145 12.5419 213.844C12.0031 212.543 11.8621 211.112 12.1368 209.731C12.4114 208.35 13.0894 207.081 14.085 206.085C15.0805 205.09 16.3489 204.412 17.7297 204.137C19.1106 203.862 20.5418 204.003 21.8426 204.542C23.1433 205.081 24.255 205.993 25.0372 207.164C25.8194 208.335 26.2369 209.712 26.2369 211.12C26.2348 213.007 25.4841 214.817 24.1496 216.152C22.8151 217.486 21.0057 218.237 19.1185 218.239V218.239ZM19.1185 204.647C17.8386 204.647 16.5874 205.027 15.5232 205.738C14.459 206.449 13.6295 207.46 13.1397 208.643C12.6499 209.825 12.5218 211.127 12.7715 212.382C13.0212 213.638 13.6375 214.791 14.5425 215.696C15.4476 216.601 16.6007 217.218 17.856 217.468C19.1113 217.717 20.4124 217.589 21.5949 217.099C22.7774 216.609 23.7881 215.78 24.4992 214.716C25.2102 213.651 25.5898 212.4 25.5898 211.12C25.5878 209.404 24.9054 207.759 23.6922 206.545C22.479 205.332 20.8342 204.649 19.1185 204.647V204.647Z" fill="#3F3D56"/>
<path d="M200.197 119.739C198.789 119.739 197.413 119.322 196.242 118.539C195.072 117.757 194.159 116.645 193.62 115.344C193.082 114.043 192.941 112.612 193.215 111.231C193.49 109.85 194.168 108.581 195.164 107.585C196.159 106.59 197.427 105.912 198.808 105.637C200.189 105.362 201.62 105.503 202.921 106.042C204.222 106.581 205.334 107.493 206.116 108.664C206.898 109.835 207.316 111.212 207.316 112.62C207.313 114.507 206.563 116.317 205.228 117.652C203.894 118.986 202.084 119.737 200.197 119.739ZM200.197 106.147C198.917 106.147 197.666 106.527 196.602 107.238C195.538 107.949 194.708 108.96 194.218 110.143C193.729 111.325 193.6 112.627 193.85 113.882C194.1 115.138 194.716 116.291 195.621 117.196C196.526 118.101 197.679 118.718 198.935 118.968C200.19 119.217 201.491 119.089 202.674 118.599C203.856 118.109 204.867 117.28 205.578 116.216C206.289 115.151 206.668 113.9 206.668 112.62C206.666 110.904 205.984 109.259 204.771 108.045C203.558 106.832 201.913 106.149 200.197 106.147V106.147Z" fill="#3F3D56"/>
<path d="M192.118 303.239C190.711 303.239 189.334 302.822 188.164 302.039C186.993 301.257 186.081 300.145 185.542 298.844C185.003 297.543 184.862 296.112 185.137 294.731C185.411 293.35 186.089 292.081 187.085 291.085C188.08 290.09 189.349 289.412 190.73 289.137C192.111 288.862 193.542 289.003 194.843 289.542C196.143 290.081 197.255 290.993 198.037 292.164C198.819 293.335 199.237 294.712 199.237 296.12C199.235 298.007 198.484 299.817 197.15 301.152C195.815 302.486 194.006 303.237 192.118 303.239ZM192.118 289.647C190.839 289.647 189.587 290.027 188.523 290.738C187.459 291.449 186.63 292.46 186.14 293.643C185.65 294.825 185.522 296.127 185.771 297.382C186.021 298.638 186.638 299.791 187.543 300.696C188.448 301.601 189.601 302.218 190.856 302.468C192.111 302.717 193.412 302.589 194.595 302.099C195.777 301.609 196.788 300.78 197.499 299.716C198.21 298.651 198.59 297.4 198.59 296.12C198.588 294.404 197.905 292.759 196.692 291.545C195.479 290.332 193.834 289.649 192.118 289.647V289.647Z" fill="#3F3D56"/>
<path d="M170.105 64.0767C172.428 64.0767 174.312 62.1931 174.312 59.8696C174.312 57.5462 172.428 55.6626 170.105 55.6626C167.782 55.6626 165.899 57.5462 165.899 59.8696C165.899 62.1931 167.782 64.0767 170.105 64.0767Z" fill="#3F3D56"/>
<path d="M203.109 140.774C205.432 140.774 207.316 138.891 207.316 136.567C207.316 134.244 205.432 132.36 203.109 132.36C200.786 132.36 198.903 134.244 198.903 136.567C198.903 138.891 200.786 140.774 203.109 140.774Z" fill="#3F3D56"/>
<path d="M0.206352 197.414C2.52946 197.414 4.4127 195.531 4.4127 193.207C4.4127 190.884 2.52946 189 0.206352 189C-2.11675 189 -4 190.884 -4 193.207C-4 195.531 -2.11675 197.414 0.206352 197.414Z" fill="#3F3D56"/>
</g>
<defs>
<clipPath id="clip0">
<rect width="224" height="298" fill="white"/>
</clipPath>
</defs>
</svg>
