<svg width="477" height="376" viewBox="0 0 477 376" fill="none" xmlns="http://www.w3.org/2000/svg">
<g clip-path="url(#clip0)">
<path d="M317.636 376L317.535 375.991L159.365 361.653L15.5358 374.691C11.7805 375.031 8.04039 373.902 5.13832 371.552C2.23625 369.201 0.409908 365.822 0.0610724 362.158C0.0204709 361.731 0.000153925 361.303 0.000118646 360.875V27.0922C-0.0143987 23.6303 1.3038 20.2892 3.69374 17.7305C6.08368 15.1718 9.3711 13.5821 12.9051 13.276L159.365 0L159.466 0.00937612L317.636 14.3465L461.464 1.3092C465.22 0.968791 468.96 2.09799 471.862 4.44837C474.764 6.79875 476.59 10.1778 476.939 13.8421C476.98 14.2687 477 14.6965 477 15.1254V348.908C477.014 352.369 475.696 355.711 473.306 358.269C470.916 360.828 467.629 362.418 464.095 362.724L317.636 376Z" fill="#73C0B0"/>
<path d="M220.484 123.483C189.867 101.724 157.652 81.0918 124.743 62.1619L123.091 61.2119V125.415H223.202L220.484 123.483ZM125.279 123.28V64.9531C156.586 83.0238 187.241 102.631 216.475 123.28L125.279 123.28ZM375.437 255.426C362.195 241.993 348.611 228.866 334.684 216.046C330.845 212.507 326.982 208.997 323.095 205.516C299.374 184.254 274.873 164.032 249.592 144.852L249.297 144.627H123.091V257.236H377.22L375.437 255.426ZM125.279 255.101V146.762H248.547C272.924 165.265 296.642 184.803 319.699 205.377C323.702 208.947 327.678 212.546 331.627 216.174C345.432 228.833 358.914 241.808 372.073 255.101H125.279ZM375.437 255.426C362.195 241.993 348.611 228.866 334.684 216.046C330.845 212.507 326.982 208.997 323.095 205.516C299.374 184.254 274.873 164.032 249.592 144.852L249.297 144.627H123.091V257.236H377.22L375.437 255.426ZM125.279 255.101V146.762H248.547C272.924 165.265 296.642 184.803 319.699 205.377C323.702 208.947 327.678 212.546 331.627 216.174C345.432 228.833 358.914 241.808 372.073 255.101H125.279ZM220.484 123.483C189.867 101.724 157.652 81.0918 124.743 62.1619L123.091 61.2119V125.415H223.202L220.484 123.483ZM125.279 123.28V64.9531C156.586 83.0238 187.241 102.631 216.475 123.28L125.279 123.28ZM220.484 123.483C189.867 101.724 157.652 81.0918 124.743 62.1619L123.091 61.2119V125.415H223.202L220.484 123.483ZM125.279 123.28V64.9531C156.586 83.0238 187.241 102.631 216.475 123.28L125.279 123.28ZM375.437 255.426C362.195 241.993 348.611 228.866 334.684 216.046C330.845 212.507 326.982 208.997 323.095 205.516C299.374 184.254 274.873 164.032 249.592 144.852L249.297 144.627H123.091V257.236H377.22L375.437 255.426ZM125.279 255.101V146.762H248.547C272.924 165.265 296.642 184.803 319.699 205.377C323.702 208.947 327.678 212.546 331.627 216.174C345.432 228.833 358.914 241.808 372.073 255.101H125.279ZM14.8086 276.448V278.583H101.214V309.537H14.8086V311.672H103.401V276.448H14.8086ZM123.091 330.885V352.515L125.279 352.317V333.019H462.192V330.885L123.091 330.885ZM462.192 278.583V276.448H123.091V311.672H462.192V309.537H125.279V278.583L462.192 278.583ZM257.884 123.28C215.913 91.6878 171.588 63.1901 125.279 38.0232V16.4088L123.091 16.6063V38.3879L124.776 40.1953C170.897 65.2937 215.041 93.7038 256.844 125.19L257.14 125.415H462.192V123.28L257.884 123.28ZM101.214 123.28H14.8086V125.415H103.401V18.3888L101.214 18.5862L101.214 123.28ZM462.192 144.627H281.927L284.284 146.517C306.479 164.337 328.271 183.236 349.66 203.216C352.701 206.055 355.731 208.917 358.75 211.803C373.779 226.132 388.516 240.93 402.959 256.195L404.762 257.236H462.192V255.101H404.9C390.614 239.987 376.018 225.31 361.112 211.072C358.132 208.222 355.14 205.391 352.137 202.581C331.211 182.989 309.839 164.383 288.02 146.762H462.192V144.627ZM14.8086 330.885V333.019H101.214V354.495L103.401 354.297V330.885H14.8086ZM14.8086 144.627V146.762H101.214V255.101H14.8086V257.236H103.401V144.627H14.8086ZM220.484 123.483C189.867 101.724 157.652 81.0918 124.743 62.1619L123.091 61.2119V125.415H223.202L220.484 123.483ZM125.279 123.28V64.9531C156.586 83.0238 187.241 102.631 216.475 123.28L125.279 123.28ZM375.437 255.426C362.195 241.993 348.611 228.866 334.684 216.046C330.845 212.507 326.982 208.997 323.095 205.516C299.374 184.254 274.873 164.032 249.592 144.852L249.297 144.627H123.091V257.236H377.22L375.437 255.426ZM125.279 255.101V146.762H248.547C272.924 165.265 296.642 184.803 319.699 205.377C323.702 208.947 327.678 212.546 331.627 216.174C345.432 228.833 358.914 241.808 372.073 255.101H125.279ZM220.484 123.483C189.867 101.724 157.652 81.0918 124.743 62.1619L123.091 61.2119V125.415H223.202L220.484 123.483ZM125.279 123.28V64.9531C156.586 83.0238 187.241 102.631 216.475 123.28L125.279 123.28ZM375.437 255.426C362.195 241.993 348.611 228.866 334.684 216.046C330.845 212.507 326.982 208.997 323.095 205.516C299.374 184.254 274.873 164.032 249.592 144.852L249.297 144.627H123.091V257.236H377.22L375.437 255.426ZM125.279 255.101V146.762H248.547C272.924 165.265 296.642 184.803 319.699 205.377C323.702 208.947 327.678 212.546 331.627 216.174C345.432 228.833 358.914 241.808 372.073 255.101H125.279Z" fill="white"/>
<path d="M244.308 140.48C244.308 167.512 194.146 227.733 194.146 227.733C194.146 227.733 143.984 167.512 143.984 140.48C143.984 127.498 149.269 115.049 158.676 105.869C168.084 96.6902 180.842 91.5333 194.146 91.5333C207.45 91.5333 220.209 96.6902 229.616 105.869C239.023 115.049 244.308 127.498 244.308 140.48Z" fill="#6C63FF"/>
<path d="M217.078 138.352C217.078 142.777 215.733 147.103 213.213 150.783C210.694 154.463 207.112 157.331 202.922 159.024C198.732 160.718 194.121 161.161 189.673 160.297C185.225 159.434 181.139 157.303 177.932 154.174C174.725 151.044 172.541 147.057 171.656 142.717C170.772 138.377 171.226 133.878 172.961 129.789C174.697 125.7 177.636 122.206 181.407 119.747C185.178 117.289 189.612 115.976 194.147 115.976C197.159 115.975 200.141 116.553 202.924 117.677C205.707 118.801 208.235 120.449 210.365 122.527C212.494 124.605 214.183 127.072 215.335 129.787C216.487 132.503 217.079 135.413 217.078 138.352Z" fill="white"/>
<path d="M194.146 263.06C201.614 263.06 207.668 257.152 207.668 249.865C207.668 242.578 201.614 236.671 194.146 236.671C186.678 236.671 180.624 242.578 180.624 249.865C180.624 257.152 186.678 263.06 194.146 263.06Z" fill="#6C63FF"/>
<path d="M323.703 84.229C334.744 84.229 343.695 75.4951 343.695 64.7213C343.695 53.9474 334.744 45.2135 323.703 45.2135C312.662 45.2135 303.711 53.9474 303.711 64.7213C303.711 75.4951 312.662 84.229 323.703 84.229Z" fill="#FF6584"/>
<path d="M386.396 124.837H288.322C288.199 124.838 288.076 124.829 287.955 124.809L334.34 46.4095C334.623 45.9212 335.034 45.515 335.53 45.2324C336.027 44.9498 336.592 44.8009 337.167 44.8009C337.742 44.8009 338.306 44.9498 338.803 45.2324C339.299 45.515 339.71 45.9212 339.993 46.4095L371.123 99.0214L372.615 101.539L386.396 124.837Z" fill="white"/>
<path opacity="0.2" d="M386.397 124.837H352.911L369.349 101.539L370.532 99.8603L371.124 99.0212L372.615 101.539L386.397 124.837Z" fill="black"/>
<path d="M441.003 124.836H356.177L372.614 101.538L373.797 99.8601L395.217 69.4982C396.622 67.5083 400 67.3844 401.651 69.1229C401.762 69.2415 401.865 69.3668 401.959 69.4982L441.003 124.836Z" fill="white"/>
<path d="M447.298 235.353C452.886 235.353 457.416 230.933 457.416 225.48C457.416 220.027 452.886 215.607 447.298 215.607C441.71 215.607 437.18 220.027 437.18 225.48C437.18 230.933 441.71 235.353 447.298 235.353Z" fill="white"/>
<path d="M448.274 255.219H446.201L447.146 223.993L448.274 255.219Z" fill="#CBCBCB"/>
<path d="M447.329 229.911L449.554 226.907L447.298 230.655L447.055 230.239L447.329 229.911Z" fill="#CBCBCB"/>
<path d="M447.086 232.944L444.86 229.941L447.116 233.688L447.359 233.271L447.086 232.944Z" fill="#CBCBCB"/>
<path d="M418.527 225.879C426.78 225.879 433.471 219.351 433.471 211.297C433.471 203.244 426.78 196.715 418.527 196.715C410.274 196.715 403.583 203.244 403.583 211.297C403.583 219.351 410.274 225.879 418.527 225.879Z" fill="white"/>
<path d="M419.968 255.218H416.907L418.303 209.101L419.968 255.218Z" fill="#CBCBCB"/>
<path d="M418.573 217.841L421.858 213.406L418.528 218.94L418.168 218.325L418.573 217.841Z" fill="#CBCBCB"/>
<path d="M418.213 222.321L414.927 217.885L418.258 223.419L418.618 222.804L418.213 222.321Z" fill="#CBCBCB"/>
<path d="M71.5783 235.353C77.1665 235.353 81.6966 230.933 81.6966 225.48C81.6966 220.027 77.1665 215.607 71.5783 215.607C65.9901 215.607 61.46 220.027 61.46 225.48C61.46 230.933 65.9901 235.353 71.5783 235.353Z" fill="white"/>
<path d="M72.5539 255.219H70.4814L71.426 223.993L72.5539 255.219Z" fill="#CBCBCB"/>
<path d="M71.6088 229.911L73.834 226.907L71.5784 230.655L71.335 230.239L71.6088 229.911Z" fill="#CBCBCB"/>
<path d="M71.3648 232.944L69.1396 229.941L71.3953 233.688L71.6387 233.271L71.3648 232.944Z" fill="#CBCBCB"/>
<path d="M42.8081 225.879C51.0614 225.879 57.752 219.351 57.752 211.297C57.752 203.244 51.0614 196.715 42.8081 196.715C34.5549 196.715 27.8643 203.244 27.8643 211.297C27.8643 219.351 34.5549 225.879 42.8081 225.879Z" fill="white"/>
<path d="M44.2482 255.218H41.1875L42.5832 209.101L44.2482 255.218Z" fill="#CBCBCB"/>
<path d="M42.8531 217.841L46.1386 213.406L42.8081 218.94L42.4482 218.325L42.8531 217.841Z" fill="#CBCBCB"/>
<path d="M42.4933 222.321L39.207 217.885L42.5382 223.419L42.8981 222.804L42.4933 222.321Z" fill="#CBCBCB"/>
</g>
<defs>
<clipPath id="clip0">
<rect width="477" height="376" fill="white"/>
</clipPath>
</defs>
</svg>
