<svg width="477" height="376" viewBox="0 0 477 376" fill="none" xmlns="http://www.w3.org/2000/svg">
<g clip-path="url(#clip0)">
<path d="M317.636 376L317.535 375.991L159.365 361.653L15.5358 374.691C11.7805 375.031 8.04039 373.902 5.13832 371.552C2.23625 369.201 0.409908 365.822 0.0610724 362.158C0.0204709 361.731 0.000153925 361.303 0.000118646 360.875V27.0922C-0.0143987 23.6303 1.3038 20.2892 3.69374 17.7305C6.08368 15.1718 9.3711 13.5821 12.9051 13.276L159.365 0L159.466 0.00937612L317.636 14.3465L461.464 1.3092C465.22 0.968791 468.96 2.09799 471.862 4.44837C474.764 6.79875 476.59 10.1778 476.939 13.8421C476.98 14.2687 477 14.6965 477 15.1254V348.908C477.014 352.369 475.696 355.711 473.306 358.269C470.916 360.828 467.629 362.418 464.095 362.724L317.636 376Z" fill="#73C0B0"/>
<path d="M220.484 123.483C189.867 101.724 157.652 81.0917 124.743 62.1618L123.091 61.2118V125.414H223.202L220.484 123.483ZM125.279 123.28V64.953C156.586 83.0236 187.241 102.631 216.475 123.28L125.279 123.28ZM375.437 255.426C362.195 241.993 348.611 228.866 334.684 216.045C330.845 212.507 326.982 208.997 323.095 205.516C299.374 184.254 274.873 164.032 249.592 144.851L249.297 144.627H123.091V257.235H377.22L375.437 255.426ZM125.279 255.101V146.762H248.547C272.924 165.265 296.642 184.803 319.699 205.377C323.702 208.947 327.678 212.546 331.627 216.174C345.432 228.833 358.914 241.808 372.073 255.101H125.279ZM375.437 255.426C362.195 241.993 348.611 228.866 334.684 216.045C330.845 212.507 326.982 208.997 323.095 205.516C299.374 184.254 274.873 164.032 249.592 144.851L249.297 144.627H123.091V257.235H377.22L375.437 255.426ZM125.279 255.101V146.762H248.547C272.924 165.265 296.642 184.803 319.699 205.377C323.702 208.947 327.678 212.546 331.627 216.174C345.432 228.833 358.914 241.808 372.073 255.101H125.279ZM220.484 123.483C189.867 101.724 157.652 81.0917 124.743 62.1618L123.091 61.2118V125.414H223.202L220.484 123.483ZM125.279 123.28V64.953C156.586 83.0236 187.241 102.631 216.475 123.28L125.279 123.28ZM220.484 123.483C189.867 101.724 157.652 81.0917 124.743 62.1618L123.091 61.2118V125.414H223.202L220.484 123.483ZM125.279 123.28V64.953C156.586 83.0236 187.241 102.631 216.475 123.28L125.279 123.28ZM375.437 255.426C362.195 241.993 348.611 228.866 334.684 216.045C330.845 212.507 326.982 208.997 323.095 205.516C299.374 184.254 274.873 164.032 249.592 144.851L249.297 144.627H123.091V257.235H377.22L375.437 255.426ZM125.279 255.101V146.762H248.547C272.924 165.265 296.642 184.803 319.699 205.377C323.702 208.947 327.678 212.546 331.627 216.174C345.432 228.833 358.914 241.808 372.073 255.101H125.279ZM14.8086 276.448V278.583H101.214V309.537H14.8086V311.672H103.401V276.448H14.8086ZM123.091 330.884V352.515L125.279 352.317V333.019H462.192V330.884L123.091 330.884ZM462.192 278.583V276.448H123.091V311.672H462.192V309.537H125.279V278.583L462.192 278.583ZM257.884 123.28C215.913 91.6877 171.588 63.1899 125.279 38.023V16.4087L123.091 16.6062V38.3878L124.776 40.1952C170.897 65.2936 215.041 93.7037 256.844 125.19L257.14 125.414H462.192V123.28L257.884 123.28ZM101.214 123.28H14.8086V125.414H103.401V18.3887L101.214 18.5861L101.214 123.28ZM462.192 144.627H281.927L284.284 146.517C306.479 164.336 328.271 183.236 349.66 203.216C352.701 206.055 355.731 208.917 358.75 211.803C373.779 226.132 388.516 240.93 402.959 256.195L404.762 257.235H462.192V255.101H404.9C390.614 239.987 376.018 225.31 361.112 211.071C358.132 208.222 355.14 205.391 352.137 202.581C331.211 182.989 309.839 164.383 288.02 146.762H462.192V144.627ZM14.8086 330.884V333.019H101.214V354.495L103.401 354.297V330.884H14.8086ZM14.8086 144.627V146.762H101.214V255.101H14.8086V257.235H103.401V144.627H14.8086ZM220.484 123.483C189.867 101.724 157.652 81.0917 124.743 62.1618L123.091 61.2118V125.414H223.202L220.484 123.483ZM125.279 123.28V64.953C156.586 83.0236 187.241 102.631 216.475 123.28L125.279 123.28ZM375.437 255.426C362.195 241.993 348.611 228.866 334.684 216.045C330.845 212.507 326.982 208.997 323.095 205.516C299.374 184.254 274.873 164.032 249.592 144.851L249.297 144.627H123.091V257.235H377.22L375.437 255.426ZM125.279 255.101V146.762H248.547C272.924 165.265 296.642 184.803 319.699 205.377C323.702 208.947 327.678 212.546 331.627 216.174C345.432 228.833 358.914 241.808 372.073 255.101H125.279ZM220.484 123.483C189.867 101.724 157.652 81.0917 124.743 62.1618L123.091 61.2118V125.414H223.202L220.484 123.483ZM125.279 123.28V64.953C156.586 83.0236 187.241 102.631 216.475 123.28L125.279 123.28ZM375.437 255.426C362.195 241.993 348.611 228.866 334.684 216.045C330.845 212.507 326.982 208.997 323.095 205.516C299.374 184.254 274.873 164.032 249.592 144.851L249.297 144.627H123.091V257.235H377.22L375.437 255.426ZM125.279 255.101V146.762H248.547C272.924 165.265 296.642 184.803 319.699 205.377C323.702 208.947 327.678 212.546 331.627 216.174C345.432 228.833 358.914 241.808 372.073 255.101H125.279Z" fill="white"/>
<path d="M323.703 84.2291C334.744 84.2291 343.695 75.4952 343.695 64.7213C343.695 53.9475 334.744 45.2136 323.703 45.2136C312.662 45.2136 303.711 53.9475 303.711 64.7213C303.711 75.4952 312.662 84.2291 323.703 84.2291Z" fill="#FF6584"/>
<path d="M386.396 124.837H288.322C288.199 124.838 288.076 124.829 287.955 124.809L334.34 46.4095C334.623 45.9212 335.034 45.515 335.531 45.2324C336.027 44.9498 336.592 44.8009 337.167 44.8009C337.742 44.8009 338.306 44.9498 338.803 45.2324C339.299 45.515 339.71 45.9212 339.993 46.4095L371.123 99.0214L372.615 101.539L386.396 124.837Z" fill="white"/>
<path opacity="0.2" d="M386.396 124.837H352.911L369.349 101.539L370.532 99.8604L371.124 99.0213L372.615 101.539L386.396 124.837Z" fill="black"/>
<path d="M441.003 124.837H356.177L372.614 101.538L373.797 99.8601L395.217 69.4983C396.622 67.5084 400 67.3845 401.651 69.1229C401.762 69.2415 401.865 69.3669 401.959 69.4983L441.003 124.837Z" fill="white"/>
<path d="M447.298 235.353C452.886 235.353 457.416 230.933 457.416 225.48C457.416 220.027 452.886 215.607 447.298 215.607C441.71 215.607 437.18 220.027 437.18 225.48C437.18 230.933 441.71 235.353 447.298 235.353Z" fill="white"/>
<path d="M448.274 255.218H446.201L447.146 223.993L448.274 255.218Z" fill="#CBCBCB"/>
<path d="M447.329 229.912L449.554 226.908L447.298 230.655L447.055 230.239L447.329 229.912Z" fill="#CBCBCB"/>
<path d="M447.086 232.944L444.86 229.941L447.116 233.688L447.359 233.271L447.086 232.944Z" fill="#CBCBCB"/>
<path d="M418.527 225.879C426.78 225.879 433.471 219.35 433.471 211.297C433.471 203.244 426.78 196.715 418.527 196.715C410.274 196.715 403.583 203.244 403.583 211.297C403.583 219.35 410.274 225.879 418.527 225.879Z" fill="white"/>
<path d="M419.968 255.218H416.907L418.303 209.101L419.968 255.218Z" fill="#CBCBCB"/>
<path d="M418.573 217.841L421.858 213.406L418.528 218.94L418.168 218.325L418.573 217.841Z" fill="#CBCBCB"/>
<path d="M418.213 222.321L414.927 217.885L418.258 223.419L418.618 222.804L418.213 222.321Z" fill="#CBCBCB"/>
<path d="M71.5783 235.353C77.1664 235.353 81.6966 230.933 81.6966 225.48C81.6966 220.027 77.1664 215.607 71.5783 215.607C65.9901 215.607 61.46 220.027 61.46 225.48C61.46 230.933 65.9901 235.353 71.5783 235.353Z" fill="white"/>
<path d="M72.5539 255.218H70.4814L71.426 223.993L72.5539 255.218Z" fill="#CBCBCB"/>
<path d="M71.6098 229.912L73.835 226.908L71.5794 230.655L71.3359 230.239L71.6098 229.912Z" fill="#CBCBCB"/>
<path d="M71.3648 232.944L69.1396 229.941L71.3953 233.688L71.6387 233.271L71.3648 232.944Z" fill="#CBCBCB"/>
<path d="M42.8081 225.879C51.0614 225.879 57.752 219.35 57.752 211.297C57.752 203.244 51.0614 196.715 42.8081 196.715C34.5549 196.715 27.8643 203.244 27.8643 211.297C27.8643 219.35 34.5549 225.879 42.8081 225.879Z" fill="white"/>
<path d="M44.2491 255.218H41.1885L42.5842 209.101L44.2491 255.218Z" fill="#CBCBCB"/>
<path d="M42.854 217.841L46.1396 213.406L42.8091 218.94L42.4492 218.325L42.854 217.841Z" fill="#CBCBCB"/>
<path d="M42.4933 222.321L39.207 217.885L42.5382 223.419L42.8981 222.804L42.4933 222.321Z" fill="#CBCBCB"/>
</g>
<defs>
<clipPath id="clip0">
<rect width="477" height="376" fill="white"/>
</clipPath>
</defs>
</svg>
