<svg width="117" height="93" viewBox="0 0 117 93" fill="none" xmlns="http://www.w3.org/2000/svg">
<g clip-path="url(#clip0)">
<path d="M70.2653 83.068L70.2429 83.0659L35.2536 79.8985L3.43672 82.7787C2.606 82.8539 1.77864 82.6045 1.13667 82.0852C0.494688 81.5659 0.0906772 80.8194 0.01351 80.0099C0.00452844 79.9156 3.40502e-05 79.8211 2.62461e-05 79.7264V5.98536C-0.00318519 5.22053 0.288419 4.4824 0.817105 3.91712C1.34579 3.35185 2.07301 3.00063 2.85479 2.93301L35.2537 0L35.276 0.00207142L70.2653 3.16951L102.082 0.289236C102.913 0.214031 103.74 0.463498 104.382 0.982758C105.024 1.50202 105.428 2.24853 105.505 3.05808C105.514 3.15233 105.519 3.24683 105.519 3.34159V77.0826C105.522 77.8474 105.23 78.5855 104.702 79.1508C104.173 79.7161 103.446 80.0673 102.664 80.135L70.2653 83.068Z" fill="#73C0B0"/>
<path d="M48.774 27.2808C42.001 22.4738 34.8748 17.9156 27.5948 13.7335L27.2294 13.5236V27.7076H49.3754L48.774 27.2808ZM27.7134 27.236V14.3502C34.6389 18.3424 41.4203 22.6743 47.8872 27.236L27.7134 27.236ZM83.0516 56.4306C80.1225 53.4629 77.1175 50.5628 74.0367 47.7303C73.1874 46.9486 72.3328 46.1732 71.473 45.4041C66.2256 40.7067 60.8057 36.2393 55.2131 32.0018L55.1478 31.9522H27.2294V56.8303H83.4461L83.0516 56.4306ZM27.7134 56.3586V32.4239H54.982C60.3746 36.5116 65.6211 40.8281 70.7216 45.3734C71.6072 46.1622 72.4868 46.9573 73.3604 47.7586C76.4142 50.5553 79.3965 53.422 82.3076 56.3586H27.7134ZM83.0516 56.4306C80.1225 53.4629 77.1175 50.5628 74.0367 47.7303C73.1874 46.9486 72.3328 46.1732 71.473 45.4041C66.2256 40.7067 60.8057 36.2393 55.2131 32.0018L55.1478 31.9522H27.2294V56.8303H83.4461L83.0516 56.4306ZM27.7134 56.3586V32.4239H54.982C60.3746 36.5116 65.6211 40.8281 70.7216 45.3734C71.6072 46.1622 72.4868 46.9573 73.3604 47.7586C76.4142 50.5553 79.3965 53.422 82.3076 56.3586H27.7134ZM48.774 27.2808C42.001 22.4738 34.8748 17.9156 27.5948 13.7335L27.2294 13.5236V27.7076H49.3754L48.774 27.2808ZM27.7134 27.236V14.3502C34.6389 18.3424 41.4203 22.6743 47.8872 27.236L27.7134 27.236ZM48.774 27.2808C42.001 22.4738 34.8748 17.9156 27.5948 13.7335L27.2294 13.5236V27.7076H49.3754L48.774 27.2808ZM27.7134 27.236V14.3502C34.6389 18.3424 41.4203 22.6743 47.8872 27.236L27.7134 27.236ZM83.0516 56.4306C80.1225 53.4629 77.1175 50.5628 74.0367 47.7303C73.1874 46.9486 72.3328 46.1732 71.473 45.4041C66.2256 40.7067 60.8057 36.2393 55.2131 32.0018L55.1478 31.9522H27.2294V56.8303H83.4461L83.0516 56.4306ZM27.7134 56.3586V32.4239H54.982C60.3746 36.5116 65.6211 40.8281 70.7216 45.3734C71.6072 46.1622 72.4868 46.9573 73.3604 47.7586C76.4142 50.5553 79.3965 53.422 82.3076 56.3586H27.7134ZM3.27588 61.0749V61.5465H22.3898V68.385H3.27588V68.8566H22.8738V61.0749H3.27588ZM27.2294 73.1012V77.8799L27.7134 77.8363V73.5728H102.243V73.1012L27.2294 73.1012ZM102.243 61.5465V61.0749H27.2294V68.8566H102.243V68.385H27.7134V61.5465L102.243 61.5465ZM57.0474 27.236C47.7628 20.2565 37.9577 13.9607 27.7134 8.40065V3.62549L27.2294 3.66911V8.48124L27.6021 8.88053C37.8047 14.4254 47.57 20.7019 56.8174 27.6581L56.8828 27.7076H102.243V27.236L57.0474 27.236ZM22.3898 27.236H3.27588V27.7076H22.8738V4.06292L22.3898 4.10654L22.3898 27.236ZM102.243 31.9522H62.3661L62.8875 32.3696C67.7972 36.3065 72.6179 40.4819 77.3494 44.8959C78.0221 45.5231 78.6924 46.1555 79.3603 46.793C82.6851 49.9587 85.9449 53.2279 89.1399 56.6003L89.5389 56.8303H102.243V56.3586H89.5694C86.4091 53.0196 83.1803 49.7772 79.8829 46.6315C79.2236 46.0018 78.5618 45.3766 77.8975 44.7556C73.2684 40.4273 68.5405 36.3167 63.7138 32.4239H102.243V31.9522ZM3.27588 73.1012V73.5728H22.3898V78.3173L22.8738 78.2737V73.1012H3.27588ZM3.27588 31.9522V32.4239H22.3898V56.3586H3.27588V56.8303H22.8738V31.9522H3.27588ZM48.774 27.2808C42.001 22.4738 34.8747 17.9156 27.5948 13.7335L27.2294 13.5236V27.7076H49.3754L48.774 27.2808ZM27.7134 27.236V14.3502C34.6389 18.3424 41.4203 22.6743 47.8872 27.236L27.7134 27.236ZM83.0516 56.4306C80.1225 53.4629 77.1175 50.5628 74.0367 47.7303C73.1874 46.9486 72.3328 46.1732 71.473 45.4041C66.2256 40.7067 60.8057 36.2393 55.2131 32.0018L55.1478 31.9522H27.2294V56.8303H83.4461L83.0516 56.4306ZM27.7134 56.3586V32.4239H54.982C60.3746 36.5116 65.6211 40.8281 70.7216 45.3734C71.6072 46.1622 72.4868 46.9573 73.3604 47.7586C76.4142 50.5553 79.3965 53.422 82.3076 56.3586H27.7134ZM48.774 27.2808C42.001 22.4738 34.8748 17.9156 27.5948 13.7335L27.2294 13.5236V27.7076H49.3754L48.774 27.2808ZM27.7134 27.236V14.3502C34.6389 18.3424 41.4203 22.6743 47.8872 27.236L27.7134 27.236ZM83.0516 56.4306C80.1225 53.4629 77.1175 50.5628 74.0367 47.7303C73.1874 46.9486 72.3328 46.1732 71.473 45.4041C66.2256 40.7067 60.8057 36.2393 55.2131 32.0018L55.1478 31.9522H27.2294V56.8303H83.4461L83.0516 56.4306ZM27.7134 56.3586V32.4239H54.982C60.3746 36.5116 65.6211 40.8281 70.7216 45.3734C71.6072 46.1622 72.4868 46.9573 73.3604 47.7586C76.4142 50.5553 79.3965 53.422 82.3076 56.3586H27.7134Z" fill="white"/>
<path d="M71.6076 18.6088C74.05 18.6088 76.0301 16.6792 76.0301 14.299C76.0301 11.9188 74.05 9.98926 71.6076 9.98926C69.1651 9.98926 67.1851 11.9188 67.1851 14.299C67.1851 16.6792 69.1651 18.6088 71.6076 18.6088Z" fill="#FF6584"/>
<path d="M85.4757 27.5799H63.7803C63.7531 27.5803 63.726 27.5782 63.6992 27.5737L73.9602 10.2533C74.0228 10.1455 74.1137 10.0557 74.2235 9.99328C74.3334 9.93085 74.4583 9.89795 74.5855 9.89795C74.7126 9.89795 74.8376 9.93085 74.9474 9.99328C75.0573 10.0557 75.1481 10.1455 75.2108 10.2533L82.0972 21.8766L82.4271 22.4328L85.4757 27.5799Z" fill="white"/>
<path opacity="0.2" d="M85.4758 27.5798H78.0684L81.7046 22.4326L81.9662 22.0618L82.0972 21.8765L82.427 22.4326L85.4758 27.5798Z" fill="black"/>
<path d="M97.5558 27.5798H78.791L82.4273 22.4327L82.6889 22.0619L87.4273 15.3542C87.7379 14.9146 88.4853 14.8872 88.8505 15.2713C88.875 15.2975 88.8978 15.3251 88.9187 15.3542L97.5558 27.5798Z" fill="white"/>
<path d="M98.9483 51.9958C100.184 51.9958 101.187 51.0192 101.187 49.8145C101.187 48.6099 100.184 47.6333 98.9483 47.6333C97.7121 47.6333 96.71 48.6099 96.71 49.8145C96.71 51.0192 97.7121 51.9958 98.9483 51.9958Z" fill="white"/>
<path d="M99.164 56.3849H98.7056L98.9145 49.4863L99.164 56.3849Z" fill="#CBCBCB"/>
<path d="M98.9551 50.7935L99.4474 50.1299L98.9484 50.9578L98.8945 50.8658L98.9551 50.7935Z" fill="#CBCBCB"/>
<path d="M98.9009 51.4638L98.4087 50.8003L98.9077 51.6281L98.9615 51.5361L98.9009 51.4638Z" fill="#CBCBCB"/>
<path d="M92.5836 49.9025C94.4093 49.9025 95.8894 48.4602 95.8894 46.681C95.8894 44.9018 94.4093 43.4595 92.5836 43.4595C90.7579 43.4595 89.2778 44.9018 89.2778 46.681C89.2778 48.4602 90.7579 49.9025 92.5836 49.9025Z" fill="white"/>
<path d="M92.9022 56.3849H92.2251L92.5338 46.1963L92.9022 56.3849Z" fill="#CBCBCB"/>
<path d="M92.5939 48.1269L93.3208 47.147L92.584 48.3696L92.5044 48.2337L92.5939 48.1269Z" fill="#CBCBCB"/>
<path d="M92.5141 49.1167L91.7871 48.1367L92.524 49.3592L92.6036 49.2235L92.5141 49.1167Z" fill="#CBCBCB"/>
<path d="M15.834 51.9958C17.0702 51.9958 18.0723 51.0192 18.0723 49.8145C18.0723 48.6099 17.0702 47.6333 15.834 47.6333C14.5978 47.6333 13.5957 48.6099 13.5957 49.8145C13.5957 51.0192 14.5978 51.9958 15.834 51.9958Z" fill="white"/>
<path d="M16.0498 56.3849H15.5913L15.8003 49.4863L16.0498 56.3849Z" fill="#CBCBCB"/>
<path d="M15.8409 50.7935L16.3331 50.1299L15.8341 50.9578L15.7803 50.8658L15.8409 50.7935Z" fill="#CBCBCB"/>
<path d="M15.7867 51.4638L15.2944 50.8003L15.7934 51.6281L15.8473 51.5361L15.7867 51.4638Z" fill="#CBCBCB"/>
<path d="M9.46936 49.9025C11.2951 49.9025 12.7751 48.4602 12.7751 46.681C12.7751 44.9018 11.2951 43.4595 9.46936 43.4595C7.64362 43.4595 6.16357 44.9018 6.16357 46.681C6.16357 48.4602 7.64362 49.9025 9.46936 49.9025Z" fill="white"/>
<path d="M9.7879 56.3849H9.11084L9.41959 46.1963L9.7879 56.3849Z" fill="#CBCBCB"/>
<path d="M9.47969 48.1269L10.2065 47.147L9.46974 48.3696L9.39014 48.2337L9.47969 48.1269Z" fill="#CBCBCB"/>
<path d="M9.39981 49.1167L8.67285 48.1367L9.40976 49.3592L9.48936 49.2235L9.39981 49.1167Z" fill="#CBCBCB"/>
</g>
<path d="M102.652 92.3465C110.216 92.3465 116.347 86.8636 116.347 80.1C116.347 73.3365 110.216 67.8535 102.652 67.8535C95.0885 67.8535 88.957 73.3365 88.957 80.1C88.957 86.8636 95.0885 92.3465 102.652 92.3465Z" fill="#6C63FF"/>
<path d="M108.498 79.1043H103.766V74.8723C103.766 74.6082 103.648 74.3549 103.44 74.1681C103.231 73.9814 102.947 73.8765 102.652 73.8765C102.357 73.8765 102.074 73.9814 101.865 74.1681C101.656 74.3549 101.539 74.6082 101.539 74.8723V79.1043H96.806C96.5106 79.1043 96.2274 79.2092 96.0186 79.3959C95.8097 79.5827 95.6924 79.836 95.6924 80.1001V80.1001C95.6924 80.3642 95.8097 80.6175 96.0186 80.8043C96.2274 80.991 96.5106 81.0959 96.806 81.0959H101.539V85.3279C101.539 85.592 101.656 85.8453 101.865 86.0321C102.074 86.2188 102.357 86.3237 102.652 86.3237V86.3237C102.947 86.3237 103.231 86.2188 103.44 86.0321C103.648 85.8453 103.766 85.592 103.766 85.3279V81.0959H108.498C108.794 81.0959 109.077 80.991 109.286 80.8043C109.495 80.6175 109.612 80.3642 109.612 80.1001V80.1001C109.612 79.836 109.495 79.5827 109.286 79.3959C109.077 79.2092 108.794 79.1043 108.498 79.1043V79.1043Z" fill="white"/>
<defs>
<clipPath id="clip0">
<rect width="105.519" height="83.068" fill="white"/>
</clipPath>
</defs>
</svg>
