<svg width="226" height="330" viewBox="0 0 226 330" fill="none" xmlns="http://www.w3.org/2000/svg">
<g clip-path="url(#clip0)">
<path opacity="0.1" d="M176.707 79.6972C176.707 69.2637 172.229 60.05 165.384 54.5098C165.479 53.455 165.528 52.3856 165.533 51.3017C165.533 34.3637 153.723 20.638 139.163 20.638C134.517 20.638 130.153 22.0375 126.363 24.49C116.053 16.7077 102.595 12 87.8723 12C63.9167 12 43.3103 24.4624 34.1684 42.3345C33.6604 42.2997 33.1494 42.2809 32.6339 42.2809C18.0719 42.2809 6.26318 56.0123 6.26318 72.9519C6.26318 79.178 7.86032 84.972 10.6017 89.8087C10.6017 105.049 23.1449 117.404 38.6112 117.404H150.819C162.968 117.404 172.816 107.703 172.816 95.7376C175.283 91.0705 176.707 85.5767 176.707 79.6972Z" fill="#6C63FF"/>
<path opacity="0.1" d="M176.894 84.9577C176.624 86.9632 176.177 88.9428 175.559 90.8748C174.968 92.7293 174.21 94.5303 173.295 96.2573C173.295 108.278 163.349 118.021 151.078 118.021H37.7588C30.4341 118.023 23.3994 115.25 18.1601 110.294L18.3106 110.258C28.7622 107.574 39.7902 106.649 48.856 100.275C36.5094 98.2919 24.2321 95.83 12.0239 92.8894C11.2716 92.7059 10.4169 92.4291 9.53966 92.1421C9.49903 91.5361 9.47646 90.9258 9.47646 90.3111C9.42079 90.2135 9.36662 90.1144 9.31245 90.0197C9.0737 89.5914 8.84398 89.1544 8.62329 88.7087C6.37677 84.1929 5.09326 78.9618 5.09326 73.3797C5.09326 64.5754 8.28775 56.6276 13.4067 51.0193C47.8328 53.7783 82.4771 52.6085 117.019 51.433L86.7189 45.5974L37.3135 36.0793C47.8238 21.7045 66.3723 12.1572 87.5013 12.1572C102.371 12.1572 115.961 16.8857 126.374 24.6966C130.202 22.2333 134.609 20.8276 139.299 20.8276C149.065 20.8276 157.601 26.9064 162.237 35.9773C162.237 35.9773 162.237 35.9773 162.237 35.9846C164.581 40.5732 165.926 45.9237 165.926 51.6398C165.926 52.6595 165.883 53.6792 165.797 54.6844C165.797 54.7441 165.788 54.8023 165.782 54.8621C169.002 57.4565 171.703 60.8506 173.668 64.7968C173.692 64.8434 173.716 64.893 173.739 64.9425C174.083 65.6369 174.403 66.3487 174.699 67.078H174.67C173.406 67.349 172.144 67.6248 170.883 67.9054C157.293 70.9451 143.829 74.6281 130.489 78.9546C126.665 80.1937 122.853 81.4863 119.053 82.8323C115.845 83.9671 111.719 86.5426 108.394 86.7567C131.13 85.281 154.048 87.4326 176.679 84.981L176.894 84.9577Z" fill="#6C63FF"/>
<path opacity="0.1" d="M230.904 126.798C230.904 117.732 227.361 109.725 221.946 104.911C222.021 103.995 222.06 103.065 222.064 102.124C222.064 87.4049 212.721 75.4778 201.202 75.4778C197.527 75.4778 194.075 76.694 191.076 78.8251C182.92 72.0625 172.273 67.9717 160.626 67.9717C141.674 67.9717 125.372 78.8011 118.14 94.3313C117.738 94.3011 117.334 94.2847 116.926 94.2847C105.406 94.2847 96.064 106.217 96.064 120.937C96.064 126.347 97.3275 131.382 99.4962 135.585C99.4962 148.828 109.419 159.564 121.655 159.564H210.424C220.035 159.564 227.825 151.134 227.825 140.737C229.777 136.681 230.904 131.907 230.904 126.798Z" fill="#6C63FF"/>
<path opacity="0.1" d="M231.092 130.72C230.88 132.447 230.529 134.151 230.044 135.815C229.579 137.412 228.983 138.963 228.264 140.45C228.264 150.801 220.45 159.19 210.808 159.19H121.772C116.017 159.192 110.489 156.804 106.373 152.537L106.491 152.506C114.703 150.195 123.368 149.399 130.491 143.909C120.79 142.202 111.144 140.082 101.551 137.55C100.96 137.392 100.289 137.153 99.5996 136.906C99.5676 136.384 99.5499 135.859 99.5499 135.329C99.5062 135.245 99.4636 135.16 99.421 135.079C99.2334 134.71 99.053 134.333 98.8796 133.95C97.1144 130.061 96.106 125.556 96.106 120.75C96.106 113.168 98.6159 106.324 102.638 101.495C129.687 103.871 156.908 102.863 184.048 101.851L160.24 96.826L121.422 88.6298C129.68 76.2515 144.254 68.0303 160.855 68.0303C172.538 68.0303 183.217 72.102 191.398 78.828C194.405 76.7069 197.868 75.4964 201.553 75.4964C209.226 75.4964 215.933 80.7309 219.576 88.542C219.576 88.542 219.576 88.542 219.576 88.5483C221.418 92.4996 222.475 97.107 222.475 102.029C222.475 102.907 222.441 103.785 222.373 104.651C222.373 104.702 222.366 104.752 222.361 104.804C224.891 107.038 227.014 109.961 228.558 113.359C228.577 113.399 228.595 113.442 228.613 113.484C228.883 114.082 229.135 114.695 229.367 115.323H229.345C228.352 115.556 227.36 115.794 226.369 116.036C215.692 118.653 205.112 121.825 194.631 125.55C191.627 126.617 188.632 127.73 185.646 128.889C183.125 129.867 179.884 132.084 177.271 132.269C195.135 130.998 213.142 132.851 230.923 130.74L231.092 130.72Z" fill="#6C63FF"/>
<path d="M85.2153 178.448C84.0681 182.275 82.6189 183.186 81.2463 182.925C79.8737 182.664 79.0975 181.33 80.2448 177.503C81.392 173.676 85.4008 169.067 85.4008 169.067C85.4008 169.067 86.3626 174.622 85.2153 178.448Z" fill="#CCCCCC"/>
<path d="M90.2376 151.191C89.5375 153.526 88.6532 154.081 87.8157 153.922C86.9782 153.763 86.5045 152.949 87.2046 150.614C87.9046 148.279 90.3507 145.466 90.3507 145.466C90.3507 145.466 90.9376 148.856 90.2376 151.191Z" fill="#CCCCCC"/>
<path d="M68.3523 162.506C67.6523 164.841 66.768 165.397 65.9304 165.237C65.0929 165.078 64.6193 164.264 65.3193 161.929C66.0193 159.594 68.4655 156.782 68.4655 156.782C68.4655 156.782 69.0524 160.171 68.3523 162.506Z" fill="#CCCCCC"/>
<path d="M24.5512 298.335C23.404 302.161 21.9548 303.072 20.5822 302.811C19.2097 302.55 18.4335 301.216 19.5807 297.389C20.7279 293.563 24.7367 288.954 24.7367 288.954C24.7367 288.954 25.6985 294.508 24.5512 298.335Z" fill="#CCCCCC"/>
<path d="M29.5735 271.077C28.8735 273.412 27.9892 273.968 27.1516 273.809C26.3141 273.649 25.8405 272.835 26.5405 270.5C27.2405 268.165 29.6867 265.353 29.6867 265.353C29.6867 265.353 30.2735 268.742 29.5735 271.077Z" fill="#CCCCCC"/>
<path d="M7.68871 282.393C6.98869 284.728 6.10439 285.284 5.26686 285.125C4.42933 284.965 3.95572 284.151 4.65574 281.816C5.35577 279.481 7.80189 276.669 7.80189 276.669C7.80189 276.669 8.38874 280.058 7.68871 282.393Z" fill="#CCCCCC"/>
<path d="M1.8989 184.259C0.75166 188.086 -0.697534 188.996 -2.07011 188.735C-3.44268 188.474 -4.21886 187.14 -3.07163 183.314C-1.9244 179.487 2.08437 174.878 2.08437 174.878C2.08437 174.878 3.04613 180.432 1.8989 184.259Z" fill="#CCCCCC"/>
<path d="M3.8489 223.673C3.14886 226.007 2.26456 226.563 1.42703 226.404C0.5895 226.245 0.11587 225.431 0.815898 223.096C1.51593 220.761 3.96206 217.948 3.96206 217.948C3.96206 217.948 4.54893 221.338 3.8489 223.673Z" fill="#CCCCCC"/>
<path d="M28.5586 208.269C27.4113 212.096 25.9621 213.007 24.5896 212.746C23.217 212.484 22.4408 211.15 23.588 207.324C24.7353 203.497 28.7441 198.888 28.7441 198.888C28.7441 198.888 29.7058 204.443 28.5586 208.269Z" fill="#CCCCCC"/>
<path d="M30.5908 149.946C29.4435 153.773 27.9943 154.684 26.6218 154.423C25.2492 154.162 24.473 152.828 25.6203 149.001C26.7675 145.174 30.7763 140.565 30.7763 140.565C30.7763 140.565 31.738 146.12 30.5908 149.946Z" fill="#CCCCCC"/>
<path d="M49.4602 192.36C48.7602 194.695 47.8759 195.25 47.0383 195.091C46.2008 194.932 45.7272 194.118 46.4272 191.783C47.1273 189.448 49.5734 186.635 49.5734 186.635C49.5734 186.635 50.1602 190.025 49.4602 192.36Z" fill="#CCCCCC"/>
<path d="M98.3006 183.915C97.6005 186.25 96.7162 186.805 95.8787 186.646C95.0411 186.487 94.5675 185.673 95.2676 183.338C95.9676 181.003 98.4137 178.19 98.4137 178.19C98.4137 178.19 99.0006 181.58 98.3006 183.915Z" fill="#CCCCCC"/>
<path d="M142.424 181.812C141.277 185.639 139.827 186.55 138.455 186.289C137.082 186.027 136.306 184.693 137.453 180.867C138.601 177.04 142.609 172.431 142.609 172.431C142.609 172.431 143.571 177.986 142.424 181.812Z" fill="#CCCCCC"/>
<path d="M13.7724 257.77C12.6251 261.597 11.176 262.508 9.8034 262.247C8.43084 261.985 7.65468 260.651 8.8019 256.825C9.94912 252.998 13.9579 248.389 13.9579 248.389C13.9579 248.389 14.9196 253.944 13.7724 257.77Z" fill="#CCCCCC"/>
<path d="M217.646 279.599C216.946 281.934 216.062 282.49 215.224 282.33C214.387 282.171 213.913 281.357 214.613 279.022C215.313 276.687 217.759 273.875 217.759 273.875C217.759 273.875 218.346 277.264 217.646 279.599Z" fill="#CCCCCC"/>
<path d="M196.945 194.658C195.798 198.484 194.348 199.395 192.976 199.134C191.603 198.873 190.827 197.539 191.974 193.712C193.121 189.886 197.13 185.277 197.13 185.277C197.13 185.277 198.092 190.831 196.945 194.658Z" fill="#CCCCCC"/>
<path d="M180.082 178.715C179.382 181.05 178.497 181.606 177.66 181.447C176.822 181.288 176.349 180.474 177.049 178.139C177.749 175.804 180.195 172.991 180.195 172.991C180.195 172.991 180.782 176.381 180.082 178.715Z" fill="#CCCCCC"/>
<path d="M171.22 292.218C170.073 296.045 168.624 296.955 167.251 296.694C165.879 296.433 165.102 295.099 166.25 291.272C167.397 287.446 171.406 282.837 171.406 282.837C171.406 282.837 172.367 288.391 171.22 292.218Z" fill="#CCCCCC"/>
<path d="M176.242 264.96C175.542 267.295 174.658 267.851 173.82 267.692C172.983 267.532 172.509 266.718 173.209 264.383C173.909 262.048 176.355 259.236 176.355 259.236C176.355 259.236 176.942 262.625 176.242 264.96Z" fill="#CCCCCC"/>
<path d="M228.812 238.391C227.665 242.218 226.216 243.129 224.843 242.868C223.471 242.607 222.695 241.272 223.842 237.446C224.989 233.619 228.998 229.01 228.998 229.01C228.998 229.01 229.96 234.565 228.812 238.391Z" fill="#CCCCCC"/>
<path d="M211.949 222.45C211.249 224.785 210.365 225.341 209.527 225.181C208.69 225.022 208.216 224.208 208.916 221.873C209.616 219.538 212.062 216.726 212.062 216.726C212.062 216.726 212.649 220.115 211.949 222.45Z" fill="#CCCCCC"/>
</g>
<defs>
<clipPath id="clip0">
<rect width="226" height="330" fill="white"/>
</clipPath>
</defs>
</svg>
